<?xml version="1.0" encoding="utf-8"?>
<svg viewBox="0 0 24 24" xmlns="http://www.w3.org/2000/svg">
  <g style="" transform="matrix(0.585517, 0, 0, 0.585517, -2.052408, -2.052408)">
    <rect width="28" height="8" x="10" y="10" style="opacity: 1; fill-opacity: 1; stroke: none; fill: rgb(33, 33, 33);"/>
    <rect width="28" height="8" x="10" y="20" style="fill:#cecece;opacity:1;fill-opacity:1;stroke:none"/>
    <path d="M 8 8 C 8 18.667 8 29.333 8 40 C 18.667 40 29.333 40 40 40 C 40 29.333 40 18.667 40 8 C 29.333 8 18.667 8 8 8 M 10 10 L 18 10 L 18 18 L 10 18 Z M 20 10 L 28 10 L 28 18 L 20 18 Z M 30 10 L 38 10 L 38 18 L 30 18 Z M 10 20 L 18 20 L 18 28 L 10 28 Z M 20 20 L 28 20 L 28 28 L 20 28 Z M 30 20 L 38 20 L 38 28 L 30 28 Z M 10 30 L 18 30 L 18 38 L 10 38 Z M 20 30 L 28 30 L 28 38 L 20 38 Z M 30 30 L 38 30 L 38 38 L 30 38 Z" style="fill:#888;opacity:1;fill-opacity:1;stroke:none;fill-rule:nonzero"/>
  </g>
</svg>