<?xml version="1.0" encoding="utf-8"?>
<svg width="24" height="24" viewBox="0 0 24 24" xmlns="http://www.w3.org/2000/svg">
  <path d="M0 0h24v24H0z" fill="none"/>
  <path d="M 2.792 19.4 L 4.132 19.96 L 4.132 10.93 L 1.702 16.79 C 1.292 17.81 1.782 18.98 2.792 19.4 Z M 22.292 15.7 L 17.332 3.73 C 17.022 2.98 16.292 2.52 15.522 2.5 C 15.262 2.5 14.992 2.54 14.732 2.65 L 7.362 5.7 C 6.612 6.01 6.152 6.73 6.132 7.5 C 6.122 7.77 6.172 8.04 6.282 8.3 L 11.242 20.27 C 11.552 21.03 12.292 21.49 13.072 21.5 C 13.332 21.5 13.592 21.45 13.842 21.35 L 21.202 18.3 C 22.222 17.88 22.712 16.71 22.292 15.7 Z M 8.142 8.5 C 7.592 8.5 7.142 8.05 7.142 7.5 C 7.142 6.95 7.592 6.5 8.142 6.5 C 8.692 6.5 9.142 6.95 9.142 7.5 C 9.142 8.05 8.692 8.5 8.142 8.5 Z M 6.142 19.5 C 6.142 20.6 7.042 21.5 8.142 21.5 L 9.592 21.5 L 6.142 13.16 L 6.142 19.5 Z" style="fill: rgb(158, 158, 158);"/>
</svg>