<?xml version="1.0" encoding="utf-8"?>
<svg width="24" height="24" viewBox="0 0 24 24" xmlns="http://www.w3.org/2000/svg">
  <circle style="fill: rgb(33, 33, 33);" cx="12" cy="12" r="11.091"/>
  <path d="M 12.315 11.11 C 10.478 10.632 9.887 10.138 9.887 9.37 C 9.887 8.487 10.705 7.872 12.072 7.872 C 13.513 7.872 14.047 8.56 14.096 9.572 L 15.884 9.572 C 15.827 8.18 14.978 6.901 13.286 6.488 L 13.286 4.716 L 10.858 4.716 L 10.858 6.464 C 9.288 6.804 8.026 7.824 8.026 9.386 C 8.026 11.255 9.571 12.186 11.829 12.728 C 13.853 13.214 14.257 13.926 14.257 14.679 C 14.257 15.237 13.861 16.127 12.072 16.127 C 10.405 16.127 9.75 15.383 9.66 14.428 L 7.88 14.428 C 7.977 16.2 9.304 17.196 10.858 17.527 L 10.858 19.284 L 13.286 19.284 L 13.286 17.544 C 14.864 17.244 16.119 16.33 16.119 14.671 C 16.119 12.372 14.152 11.587 12.315 11.11 Z" style="fill: rgb(255, 255, 255);"/>
  <path d="M0 0h24v24H0z" fill="none"/>
</svg>