<?xml version="1.0" encoding="utf-8"?>
<svg width="24" height="24" viewBox="0 0 24 24" xmlns="http://www.w3.org/2000/svg">
  <path d="M0 0h24v24H0z" fill="none"/>
  <path d="M 4.463 6.347 L 21.421 6.347 L 21.421 4.463 L 4.463 4.463 C 3.426 4.463 2.578 5.311 2.578 6.347 L 2.578 16.711 L 0.694 16.711 L 0.694 19.537 L 13.884 19.537 L 13.884 16.711 L 4.463 16.711 L 4.463 6.347 Z M 22.364 8.232 L 16.711 8.232 C 16.192 8.232 15.768 8.656 15.768 9.174 L 15.768 18.595 C 15.768 19.113 16.192 19.537 16.711 19.537 L 22.364 19.537 C 22.882 19.537 23.306 19.113 23.306 18.595 L 23.306 9.174 C 23.306 8.656 22.882 8.232 22.364 8.232 Z M 21.421 16.711 L 17.653 16.711 L 17.653 10.116 L 21.421 10.116 L 21.421 16.711 Z" style="fill: rgb(158, 158, 158);"/>
</svg>