<?xml version="1.0" encoding="utf-8"?>
<svg width="24" height="24" viewBox="0 0 24 24" xmlns="http://www.w3.org/2000/svg">
  <path fill="none" d="M0 0h24v24H0V0z"/>
  <path d="M 18 13.001 L 17.32 13.001 L 15.32 15.001 L 17.23 15.001 L 19 17.001 L 5 17.001 L 6.78 15.001 L 8.83 15.001 L 6.83 13.001 L 6 13.001 L 3 16.001 L 3 20.001 C 3 21.101 3.89 22.001 4.99 22.001 L 19 22.001 C 20.1 22.001 21 21.111 21 20.001 L 21 16.001 L 18 13.001 Z M 17 7.951 L 12.05 12.901 L 8.51 9.361 L 13.46 4.411 L 17 7.951 Z M 12.76 2.291 L 6.39 8.661 C 6 9.051 6 9.681 6.39 10.071 L 11.34 15.021 C 11.73 15.411 12.36 15.411 12.75 15.021 L 19.11 8.661 C 19.5 8.271 19.5 7.641 19.11 7.251 L 14.16 2.301 C 13.78 1.901 13.15 1.901 12.76 2.291 Z" style="fill: rgb(33, 33, 33);"/>
</svg>