<?xml version="1.0" encoding="utf-8"?>
<svg width="48" height="48" viewBox="0 0 24 24" xmlns="http://www.w3.org/2000/svg" xmlns:bx="https://boxy-svg.com">
  <g style="" transform="matrix(0.48245, 0, 0, 0.48245, 0.421199, 0.421199)">
    <path d="M 11.4 15.402 H 28.109 L 28.109 7.953 L 45.671 17.766 L 28.109 27.58 L 28.109 20.131 H 11.4 V 15.402 Z" style="fill: rgb(117, 117, 117);" transform="matrix(0.687998, -0.725712, 0.725712, 0.687998, -8.372308, 31.7663)" bx:shape="arrow 11.4 7.953 34.271 19.627 4.729 17.562 0 1@b8fa6ab3"/>
    <g transform="matrix(1, 0, 0, 1, -1.758249, 1.9025)">
      <g transform="matrix(1, 0, 0, 1, 0, -3.805)">
        <line style="stroke-width: 2px; stroke-linecap: round; stroke: rgb(33, 33, 33);" x1="48" y1="48" x2="48" y2="3.805"/>
        <line style="stroke-width: 2px; stroke: rgb(33, 33, 33); stroke-linecap: square;" x1="25.813" y1="48" x2="48" y2="48"/>
      </g>
      <g transform="matrix(1, 0, 0, 1, 3.516998, 0)">
        <line style="stroke-width: 2px; stroke-linecap: round; stroke: rgb(33, 33, 33);" x1="0" y1="0" x2="44.483" y2="0"/>
        <line style="stroke-width: 2px; stroke: rgb(33, 33, 33); stroke-linecap: square;" x1="-11.094" y1="11.094" x2="11.093" y2="11.094" transform="matrix(0, -1, 1, 0, -11.0945, 11.0935)"/>
      </g>
    </g>
  </g>
</svg>